<svg width="33" height="28" viewBox="0 0 33 28" fill="none" xmlns="http://www.w3.org/2000/svg">
<path d="M16.1 4.3C9.90001 4.3 4.30001 8.7 1.70001 13.8C3.80001 17.8 9.10001 23.3 16.1 23.3C22.3 23.3 27.9 18.9 30.5 13.8C27.9 8.8 22.3 4.3 16.1 4.3Z" fill="white" stroke="#0D928B" stroke-width="2.8906"/>
<path d="M23.3 14.4C23.3 19.4 19.9 23.1 16.1 23.1C12.3 23.1 8.89999 19.4 8.89999 14.4C8.89999 9.4 12.3 5.7 16.1 5.7C19.9 5.7 23.3 9.4 23.3 14.4Z" stroke="#0D928B" stroke-width="2.8906"/>
<path d="M21 17C21 19.7 18.9 22 16.2 22C13.6 22 11.4 19.8 11.4 17C11.4 14.3 13.5 12 16.2 12C18.9 12 21 14.2 21 17Z" fill="#D0D0D0"/>
</svg>
